<svg xmlns="http://www.w3.org/2000/svg" viewBox="0 0 24 24" fill="none">
  <path d="M10 4 8.5 2.5M14 4l1.5-1.5M7 8H4.5M6 12H3.5M7 16H4.5M17 8h2.5M18 12h2.5M17 16h2.5" stroke="#F5F7FF" stroke-width="1.7" stroke-linecap="round"/>
  <rect x="7.25" y="5.75" width="9.5" height="13.5" rx="4.75" stroke="#F5F7FF" stroke-width="1.7"/>
  <path d="M9.5 8.75c.5-.8 1.4-1.25 2.5-1.25s2 .45 2.5 1.25" stroke="#BFD3FF" stroke-width="1.7" stroke-linecap="round"/>
  <circle cx="10.25" cy="11.25" r="1" fill="#F5F7FF"/>
  <circle cx="13.75" cy="11.25" r="1" fill="#F5F7FF"/>
  <path d="M10 15c.6.6 1.25.9 2 .9s1.4-.3 2-.9" stroke="#D7F7DF" stroke-width="1.7" stroke-linecap="round"/>
</svg>
